#!OML:ASF Y:\EmotionMaleHayes\Project 1\Capture day 1\Session 1\Male1.ASF
:FULLY-SPECIFIED
:DEGREES
2110
root 8.33413 16.7698 -11.998 1075.4 365.342 1070.93
lowerback 7.93453 3.33802 7.49243
upperback 2.48407 5.05813 1.58259
thorax -1.34963 2.53738 -2.97513
lowerneck -23.2712 -0.237846 2.92724
upperneck 22.9292 -0.64096 -2.6651
head 11.2845 -0.373011 -1.57035
rclavicle 1.50082e-014 1.51076e-014
rhumerus -15.2029 6.99557 -73.6967
rradius 46.714
rwrist -6.68858
rhand -12.0133 -32.8619
rfingers 7.12502
rthumb 14.0441 -62.3674
lclavicle 1.50082e-014 1.51076e-014
lhumerus -48.2164 9.27038 72.1448
lradius 18.4316
lwrist -22.8913
lhand -13.3078 -22.5568
lfingers 7.12502
lthumb 12.7965 7.03106
rfemur 18.7453 -6.021 25.5333
rtibia 6.06644
rfoot -23.6856 0.422687
rtoes 8.66232
lfemur -24.2151 6.97028 -9.3536
ltibia 31.2717
lfoot -7.16562 4.76612
ltoes 11.0478
2111
root 8.32066 16.756 -11.918 1075.63 365.364 1070.9
lowerback 7.82277 3.36666 7.43025
upperback 2.42652 5.08491 1.61398
thorax -1.35347 2.5489 -2.90494
lowerneck -23.396 -0.227856 3.00142
upperneck 22.8801 -0.633593 -2.7551
head 11.289 -0.375939 -1.61507
rclavicle 4.96962e-015 -5.96354e-015
rhumerus -14.8168 7.35584 -73.8905
rradius 47.1031
rwrist -6.74797
rhand -11.967 -33.0767
rfingers 7.12502
rthumb 14.0888 -62.5791
lclavicle 4.96962e-015 -5.96354e-015
lhumerus -48.8322 9.75833 71.8857
lradius 18.3292
lwrist -23.7703
lhand -12.8156 -22.8507
lfingers 7.12502
lthumb 13.2709 6.70678
rfemur 18.7776 -5.88231 25.7384
rtibia 6.06446
rfoot -23.9123 0.323468
rtoes 8.16731
lfemur -24.2572 6.48615 -9.0392
ltibia 28.9225
lfoot -6.45495 5.202
ltoes 16.5084
2112
root 8.31943 16.7432 -11.8354 1075.78 365.489 1070.66
lowerback 7.75167 3.29363 7.71794
upperback 2.38054 5.00658 1.65638
thorax -1.34827 2.50917 -3.0105
lowerneck -23.7078 -0.144703 3.27723
upperneck 22.9465 -0.564221 -2.98338
head 11.3733 -0.351189 -1.73798
rclavicle 1.92324e-014 -4.37326e-015
rhumerus -14.4007 7.90296 -74.2045
rradius 47.426
rwrist -6.66186
rhand -11.9667 -33.043
rfingers 7.12502
rthumb 14.0891 -62.5454
lclavicle 1.92324e-014 -4.37326e-015
lhumerus -49.3077 9.48127 72.2041
lradius 18.3367
lwrist -23.4397
lhand -12.2281 -22.6645
lfingers 7.12502
lthumb 13.8372 6.85528
rfemur 18.946 -5.76166 26.1597
rtibia 5.96177
rfoot -24.1893 0.0760984
rtoes 7.65057
lfemur -24.2626 5.81418 -8.54096
ltibia 26.5841
lfoot -5.69641 5.83687
ltoes 19.1441
2113
root 8.31343 16.7279 -11.7521 1075.95 365.58 1070.56
lowerback 7.69702 3.26035 7.81062
upperback 2.32774 4.96653 1.6311
thorax -1.36679 2.48735 -3.08311
lowerneck -23.8803 -0.0905794 3.49602
upperneck 22.8707 -0.568789 -3.01352
head 11.3761 -0.339124 -1.78661
rclavicle 1.82385e-014 8.74653e-015
rhumerus -13.9876 8.30003 -74.6013
rradius 47.645
rwrist -6.65849
rhand -11.9674 -32.7836
rfingers 7.12502
rthumb 14.0884 -62.286
lclavicle 1.82385e-014 8.74653e-015
lhumerus -49.7539 9.30935 72.3672
lradius 18.3555
lwrist -23.3984
lhand -11.5302 -22.3384
lfingers 7.12502
lthumb 14.5096 7.13423
rfemur 19.1236 -5.60573 26.4812
rtibia 5.91858
rfoot -24.5348 -0.174677
rtoes 8.07434
lfemur -24.207 5.32189 -8.22916
ltibia 24.2136
lfoot -4.86678 6.38946
ltoes 19.7366
2114
root 8.31306 16.7137 -11.6624 1076.05 365.541 1070.8
lowerback 7.66573 3.28183 7.58839
upperback 2.33626 4.97284 1.5472
thorax -1.35188 2.49131 -3.04555
lowerneck -23.7823 -0.137416 3.37728
upperneck 22.5911 -0.646374 -2.81442
head 11.2506 -0.360421 -1.70044
rclavicle 3.08116e-015 2.38542e-015
rhumerus -13.5898 8.69815 -74.9182
rradius 47.8555
rwrist -6.75514
rhand -12.0985 -32.8284
rfingers 7.12502
rthumb 13.962 -62.3396
lclavicle 3.08116e-015 2.38542e-015
lhumerus -50.2074 9.41087 72.4354
lradius 18.3454
lwrist -23.6252
lhand -11.0092 -22.0709
lfingers 7.12502
lthumb 15.0116 7.36492
rfemur 19.4176 -5.37359 26.2962
rtibia 5.91398
rfoot -24.8327 -0.00101713
rtoes 10.0131
lfemur -23.8912 5.06476 -8.44824
ltibia 21.8703
lfoot -3.84559 6.79865
ltoes 15.2851
2115
root 8.30954 16.7023 -11.5751 1076.1 365.465 1070.83
lowerback 7.7188 3.31391 7.51199
upperback 2.33652 5.01533 1.57883
thorax -1.38625 2.51091 -2.97776
lowerneck -23.6711 -0.212721 3.12529
upperneck 22.372 -0.70892 -2.62936
head 11.1472 -0.388023 -1.59625
rclavicle 9.34288e-015 2.42517e-014
rhumerus -13.2543 9.21294 -75.1236
rradius 48.155
rwrist -6.7557
rhand -12.0113 -32.9274
rfingers 7.12502
rthumb 14.0461 -62.4328
lclavicle 9.34288e-015 2.42517e-014
lhumerus -50.5925 9.53438 72.5983
lradius 18.2126
lwrist -23.8164
lhand -10.4841 -21.8829
lfingers 7.12502
lthumb 15.5174 7.51447
rfemur 19.7062 -5.06654 26.4149
rtibia 5.87718
rfoot -25.1087 0.174265
rtoes 11.8348
lfemur -23.3389 3.51136 -7.73836
ltibia 19.1181
lfoot -4.26393 7.77741
ltoes 25.532
2116
root 8.30506 16.6921 -11.4894 1076.2 365.459 1070.55
lowerback 7.7049 3.32111 7.77964
upperback 2.3104 5.04659 1.6418
thorax -1.38432 2.52589 -3.06169
lowerneck -23.495 -0.192837 2.99193
upperneck 22.1074 -0.676877 -2.45545
head 11.0181 -0.363837 -1.49992
rclavicle -2.45996e-014 -2.14687e-014
rhumerus -12.9205 9.39929 -75.4669
rradius 48.3409
rwrist -6.44143
rhand -11.7791 -32.6884
rfingers 7.12502
rthumb 14.2698 -62.1782
lclavicle -2.45996e-014 -2.14687e-014
lhumerus -50.9037 9.65637 72.6639
lradius 18.0594
lwrist -24.1706
lhand -10.104 -21.7048
lfingers 7.12502
lthumb 15.8834 7.6638
rfemur 19.8358 -5.18551 26.7936
rtibia 5.91488
rfoot -25.323 -0.0777834
rtoes 9.72344
lfemur -23.3552 3.77135 -7.25788
ltibia 17.4384
lfoot -3.59871 7.48954
ltoes 22.3444
2117
root 8.31156 16.6769 -11.3934 1076.27 365.314 1070.45
lowerback 7.64188 3.38335 8.0274
upperback 2.33648 5.13789 1.56327
thorax -1.28218 2.57661 -3.27813
lowerneck -23.3068 -0.168072 2.98944
upperneck 21.7501 -0.68698 -2.2771
head 10.8512 -0.347732 -1.42972
rclavicle -4.77083e-014 6.36111e-015
rhumerus -12.7403 9.46435 -75.8979
rradius 48.5942
rwrist -6.1991
rhand -11.6723 -32.3536
rfingers 7.12502
rthumb 14.3728 -61.836
lclavicle -4.77083e-014 6.36111e-015
lhumerus -51.1823 9.88354 72.518
lradius 17.9998
lwrist -24.4571
lhand -9.74367 -21.5984
lfingers 7.12502
lthumb 16.2305 7.74221
rfemur 20.0656 -5.73173 26.6247
rtibia 6.00312
rfoot -25.3516 -0.062683
rtoes 5.86726
lfemur -22.6784 2.15743 -6.68138
ltibia 14.8838
lfoot -3.69716 8.66686
ltoes 22.2144
2118
root 8.30343 16.6621 -11.2851 1076.36 365.022 1070.62
lowerback 7.50786 3.49853 7.72703
upperback 2.38683 5.25111 1.49602
thorax -1.16405 2.63866 -3.17735
lowerneck -23.8979 -0.18149 3.32906
upperneck 22.0491 -0.772756 -2.55363
head 11.0661 -0.393069 -1.60965
rclavicle 4.52235e-015 2.3059e-014
rhumerus -12.5625 9.96395 -76.2639
rradius 48.8595
rwrist -6.27278
rhand -11.6292 -32.2296
rfingers 7.12502
rthumb 14.4143 -61.7091
lclavicle 4.52235e-015 2.3059e-014
lhumerus -51.4786 10.2177 72.3432
lradius 17.9875
lwrist -24.6149
lhand -9.19148 -21.6112
lfingers 7.12502
lthumb 16.7621 7.68523
rfemur 20.4333 -5.51753 26.5076
rtibia 5.92945
rfoot -25.4338 -0.171206
rtoes 4.62751
lfemur -22.3895 2.98367 -6.614
ltibia 13.3467
lfoot -3.67587 7.64006
ltoes 21.5288
